# xmcd CD database file
# Copyright (C) 1993-1998 Ti Kan
#
# Track frame offsets:
#	150
#	14480
#	27032
#	40025
#	56262
#	72652
#	88890
#	105167
#	118757
#	131315
#
# Disc length: 1934 seconds
#
# Revision: 1
# Processed by: cddbd v1.4b41PL1 Copyright (c) Steve Scherf et al.
# Submitted via: CDValet v3.31 - Copyright (c) 1997 Greg Leichner
#
DISCID=7a078c0a
DTITLE=Tim Mensy - Stone By Stone
DYEAR=1900
DGENRE=
TTITLE0=Don't Cross Your Heart
TTITLE1=Wrong Way to Find Mr. Right
TTITLE2=Too Close To Tulsa
TTITLE3=I Wish His Furture was Ahead of Me
TTITLE4=I've Got To Hand it to You
TTITLE5=Fork in the Road
TTITLE6=You Still Love me in my Dreams
TTITLE7=Hometown Advanage
TTITLE8=Stone By Stone
TTITLE9=You Can't Throw Dirt
EXTD=
EXTT0=
EXTT1=
EXTT2=
EXTT3=
EXTT4=
EXTT5=
EXTT6=
EXTT7=
EXTT8=
EXTT9=
PLAYORDER=
